<svg width="19" height="23" viewBox="0 0 19 23" fill="none" xmlns="http://www.w3.org/2000/svg">
<path d="M11.73 21C11.5542 21.3031 11.3019 21.5547 10.9982 21.7295C10.6946 21.9044 10.3504 21.9965 10 21.9965C9.64964 21.9965 9.30541 21.9044 9.00179 21.7295C8.69818 21.5547 8.44583 21.3031 8.27002 21" stroke="url(#paint0_linear)" stroke-width="2" stroke-linecap="round" stroke-linejoin="round"/>
<path d="M18 17C16.5928 14.0685 15.9219 11.0385 16.0072 8" stroke="url(#paint1_linear)" stroke-width="2" stroke-linecap="round" stroke-linejoin="round"/>
<path d="M4.95857 6C4.74761 6.57726 4.64117 7.17807 4.64286 7.78212C4.64286 14.9516 1 17 1 17H18" stroke="url(#paint2_linear)" stroke-width="2" stroke-linecap="round" stroke-linejoin="round"/>
<path d="M16 7.99999C16.0017 6.91306 15.708 5.8461 15.1504 4.91308C14.5928 3.98007 13.7922 3.21605 12.8342 2.70263C11.8761 2.18921 10.7966 1.94569 9.71094 1.99806C8.62527 2.05043 6.67857 2.70263 6 3.5" stroke="url(#paint3_linear)" stroke-width="2" stroke-linecap="round" stroke-linejoin="round"/>
<defs>
<linearGradient id="paint0_linear" x1="10" y1="21" x2="10" y2="21.9965" gradientUnits="userSpaceOnUse">
<stop stop-color="#4A09D2"/>
<stop offset="1" stop-color="#CF0ACB"/>
</linearGradient>
<linearGradient id="paint1_linear" x1="17" y1="8" x2="17" y2="17" gradientUnits="userSpaceOnUse">
<stop stop-color="#4A09D2"/>
<stop offset="1" stop-color="#CF0ACB"/>
</linearGradient>
<linearGradient id="paint2_linear" x1="9.5" y1="6" x2="9.5" y2="17" gradientUnits="userSpaceOnUse">
<stop stop-color="#4A09D2"/>
<stop offset="1" stop-color="#CF0ACB"/>
</linearGradient>
<linearGradient id="paint3_linear" x1="11.335" y1="1.99109" x2="11.335" y2="7.99999" gradientUnits="userSpaceOnUse">
<stop stop-color="#4A09D2"/>
<stop offset="1" stop-color="#CF0ACB"/>
</linearGradient>
</defs>
</svg>
